<?xml version="1.0" encoding="UTF-8" standalone="no"?>
<!-- Created with Inkscape (http://www.inkscape.org/) -->

<svg
   width="108"
   height="108"
   viewBox="0 0 28.574999 28.575"
   version="1.1"
   id="svg1"
   inkscape:export-filename="salekaihtimet.svg"
   inkscape:export-xdpi="96"
   inkscape:export-ydpi="96"
   xmlns:inkscape="http://www.inkscape.org/namespaces/inkscape"
   xmlns:sodipodi="http://sodipodi.sourceforge.net/DTD/sodipodi-0.dtd"
   xmlns="http://www.w3.org/2000/svg"
   xmlns:svg="http://www.w3.org/2000/svg">
  <sodipodi:namedview
     id="namedview1"
     pagecolor="#505050"
     bordercolor="#eeeeee"
     borderopacity="1"
     inkscape:showpageshadow="0"
     inkscape:pageopacity="0"
     inkscape:pagecheckerboard="0"
     inkscape:deskcolor="#505050"
     inkscape:document-units="mm" />
  <defs
     id="defs1" />
  <g
     inkscape:label="Taso 1"
     inkscape:groupmode="layer"
     id="layer1">
    <rect
       style="fill:#4bb3d4;fill-opacity:1;stroke-width:0.264583"
       id="rect5"
       width="27.444187"
       height="26.71356"
       x="0.54797047"
       y="0.91328412"
       ry="3.15083" />
    <circle
       style="fill:#d4cf4b;fill-opacity:1;stroke-width:0.478838"
       id="path5"
       cx="9.7493067"
       cy="9.9776297"
       r="7.6030903" />
    <rect
       style="fill:#000000;fill-opacity:1;stroke-width:0.264583"
       id="rect7"
       width="2.2832103"
       height="0.45664206"
       x="10.091789"
       y="7.4889297"
       ry="0.22832103" />
    <rect
       style="fill:#000000;fill-opacity:1;stroke-width:0.264583"
       id="rect8"
       width="5.571033"
       height="0.50230628"
       x="5.5629773"
       y="3.0903888"
       ry="0.22832103"
       transform="rotate(28.026431)" />
    <rect
       style="fill:#000000;fill-opacity:1;stroke-width:0.231853"
       id="rect8-6"
       width="4.9024267"
       height="0.43832338"
       x="2.0891883"
       y="16.085203"
       ry="0.1992379"
       transform="matrix(0.6359081,-0.77176479,0.72812739,0.68544183,0,0)" />
    <rect
       style="fill:#000000;fill-opacity:1;stroke-width:0.264583"
       id="rect9"
       width="3.7901292"
       height="3.6074727"
       x="6.9866233"
       y="6.0733399"
       ry="0.22832103" />
    <rect
       style="fill:#000000;fill-opacity:1;stroke-width:0.264583"
       id="rect9-5"
       width="3.7901292"
       height="3.6074727"
       x="11.293811"
       y="6.0746694"
       ry="0.22832103" />
    <path
       style="fill:#f9df37;fill-opacity:1;stroke-width:0.0530896"
       d="m 17.872296,12.665949 c -0.215227,-0.138391 -0.117662,-0.697375 0.130355,-0.746797 0.08452,-0.01685 1.979651,0.313462 4.944911,0.86186 3.862002,0.71424 4.818997,0.905182 4.864486,0.970578 0.07341,0.105531 0.0015,0.586348 -0.09873,0.660289 -0.06217,0.04587 -1.023386,-0.112987 -4.907129,-0.810978 C 20.1278,13.119538 17.930019,12.70307 17.87229,12.665949 Z"
       id="path11" />
    <path
       style="fill:#f9df37;fill-opacity:1;stroke-width:0.0495334"
       d="m 18.764138,9.6752753 c -0.203939,-0.1029099 -0.196403,-0.670279 0.01008,-0.7579997 0.07036,-0.029902 1.744791,-0.00101 4.369032,0.075382 3.417856,0.099487 4.266697,0.1379225 4.314738,0.1953711 0.07752,0.092708 0.08138,0.5788498 0.0053,0.6676018 -0.04719,0.05506 -0.895274,0.04897 -4.329601,-0.03106 -2.368454,-0.05519 -4.314847,-0.121693 -4.369549,-0.149297 z"
       id="path11-0" />
    <path
       style="fill:#f9df37;fill-opacity:1;stroke-width:0.0495334"
       d="M 18.542666,6.3810016 C 18.317279,6.3438246 18.154713,5.8001911 18.325492,5.65471 c 0.05819,-0.049582 1.664564,-0.5229935 4.191444,-1.2352821 3.291054,-0.9276858 4.112509,-1.1449865 4.175538,-1.104543 0.101707,0.065269 0.250843,0.5279845 0.204803,0.6354339 -0.02856,0.066657 -0.839611,0.3145916 -4.140559,1.2657741 -2.27647,0.6559767 -4.153598,1.1748785 -4.214053,1.1649058 z"
       id="path11-0-2" />
    <path
       style="fill:#f9df37;fill-opacity:1;stroke-width:0.0530896"
       d="m 17.231964,15.258749 c -0.144466,-0.211198 0.16281,-0.688236 0.41052,-0.637316 0.08442,0.01735 1.701913,1.058663 4.220485,2.717064 3.280231,2.159928 4.087636,2.70801 4.104113,2.785948 0.02659,0.125772 -0.226632,0.540782 -0.347736,0.56992 -0.07512,0.01808 -0.898888,-0.502082 -4.205467,-2.655495 -2.280353,-1.485082 -4.143167,-2.723472 -4.181916,-2.780122 z"
       id="path11-6" />
    <path
       style="fill:#f9df37;fill-opacity:1;stroke-width:0.0530896"
       d="m 14.758743,17.099112 c -0.05541,-0.24981 0.407437,-0.578075 0.618358,-0.438558 0.07188,0.04754 1.185145,1.616388 2.904811,4.093534 2.23972,3.226275 2.784892,4.035648 2.771154,4.114116 -0.02221,0.126619 -0.411746,0.417459 -0.534989,0.399394 -0.07645,-0.01122 -0.647205,-0.800757 -2.913804,-4.030799 -1.563141,-2.227571 -2.83067,-4.070682 -2.84553,-4.137687 z"
       id="path11-8" />
    <path
       style="fill:#f9df37;fill-opacity:1;stroke-width:0.0505844"
       d="m 11.221148,18.1104 c 0.02847,-0.23086 0.572671,-0.376756 0.72705,-0.194915 0.05261,0.06197 0.597893,1.736771 1.422784,4.370012 1.074355,3.429575 1.328071,4.285039 1.289665,4.3484 -0.06197,0.102246 -0.524739,0.23753 -0.635493,0.185784 -0.06871,-0.0321 -0.353043,-0.878059 -1.451607,-4.318772 -0.757615,-2.372857 -1.360036,-4.328587 -1.352399,-4.390509 z"
       id="path11-2" />
    <path
       style="fill:#f9df37;fill-opacity:1;stroke-width:0.0480493"
       d="m 7.8240863,18.231317 c 0.1368819,-0.17709 0.6965364,-0.100367 0.7476896,0.102502 0.017431,0.06913 -0.2996242,1.623358 -0.8272922,4.055388 -0.6872398,3.167517 -0.8714919,3.952498 -0.936568,3.990133 -0.1050116,0.06074 -0.5863232,0.0046 -0.6609633,-0.07709 -0.046304,-0.05067 0.1058331,-0.838919 0.7766741,-4.02415 0.4626393,-2.196666 0.8637431,-3.999288 0.9004604,-4.046787 z"
       id="path11-2-3" />
    <path
       style="fill:#f9df37;fill-opacity:1;stroke-width:0.0480493"
       d="m 4.680711,16.942582 c 0.1804678,-0.132397 0.6971645,0.09591 0.6902981,0.305017 -0.00234,0.07126 -0.73632,1.477464 -1.9151587,3.669162 -1.5353358,2.854507 -1.9292226,3.558067 -2.0021617,3.576265 -0.117703,0.02937 -0.56478817,-0.157514 -0.61396336,-0.256641 -0.0305086,-0.06149 0.33341506,-0.777059 1.85788246,-3.653119 1.0513346,-1.98345 1.9346978,-3.605177 1.9831053,-3.640688 z"
       id="path11-2-3-3" />
  </g>
</svg>
